<svg width="0" height="0" fill="none">
    <symbol fill="none" xmlns="http://www.w3.org/2000/svg" viewBox="0 0 592.8 164.4" id="logo">
        <g class="letter">
            <path d="M982.35,606.85c-.46,3.52-.93,7-1.42,10.68h-48c-.08-1.16-.15-2.2-.21-3,3.19,0,6.35-.06,9.51,0,1.64,0,2.46-.51,2.28-2.23a17.8,17.8,0,0,1,0-1.79q0-72.48,0-144.95v-3.64H932.86l-.26-3.14h51v73l.66.2c.38-.57.83-1.12,1.15-1.72,5.54-10.38,14.21-15.47,26-15.54,11.28-.06,21.35,2.81,28.93,11.71,5.1,6,7.8,13.13,9.24,20.75,2.65,14,2.86,28.15-.49,42.08-4.79,19.9-18.44,30.3-39.82,30.56a64.58,64.58,0,0,1-13.63-1.48,15.33,15.33,0,0,1-11.49-9.55c-.32-.76-.75-1.48-1.13-2.22ZM984,571.23c0,8.36-.22,16.73.08,25.07.21,5.66,2,11,6.32,15,5.32,4.9,13.52,3.69,16.13-2.94a46.12,46.12,0,0,0,3.24-15q.84-23.55.54-47.14a70.47,70.47,0,0,0-2.75-17.25c-1.32-4.84-5.74-6.65-10.52-5a14.34,14.34,0,0,0-5.2,3.31c-5.44,5.43-7.5,12.38-7.77,19.79C983.76,555.11,984,563.18,984,571.23Z"
                  transform="translate(-664 -458)"/>
            <path d="M1109.38,517v97.46h7.75l-.14,3.08h-58.4c-.09-.8-.19-1.64-.34-2.85h11.38V520.19h-12.12V517Z"
                  transform="translate(-664 -458)"/>
            <path d="M1089.49,501.7c-1.54-.1-3.26-.07-4.92-.32-11-1.63-17.65-11.19-15.68-22.4,1.87-10.57,7.7-15.72,18.5-16.29,6-.32,11.79.1,16.87,3.73,6.13,4.39,8.56,12.92,6.23,21.55-2.17,8-7.79,12.56-16.66,13.49C1092.44,501.6,1091,501.62,1089.49,501.7Z"
                  transform="translate(-664 -458)"/>
            <path d="M921.43,592.34c-.14-.32-.49-.76-.38-1,1.67-3,0-5.48-1.33-8q-16.29-32.54-32.52-65.09c-.4-.8-.74-1.62-1.14-2.48,19.26,1.72,34.46,12.9,38.58,33.51a82.47,82.47,0,0,1-1.26,38.66c-.41,1.5-.86,3-1.3,4.49Z"
                  transform="translate(-664 -458)"/>
            <path d="M1176.58,521.17c-.13-1-.25-1.91-.36-2.75-2.55-1-4-.3-5.36,2.08-10,17.87-20.17,35.67-30.29,53.48-.57,1-1.18,2-2.23,3.77v-57.5h-11.61V517c1.14-.05,2.2-.14,3.26-.14,12.28,0,24.56.05,36.85,0,2.76,0,5.66.78,8.27-1.3.79-.63,2.5-.1,3.76-.1C1180.12,519.93,1179.67,521.18,1176.58,521.17Z"
                  transform="translate(-664 -458)"/>
            <path d="M718.23,619.1c-16.9-2.69-33.91-.77-51.05-1.58v-3.41H680.7V560l.54-.13c.33.54.72,1.05,1,1.62,8.8,17.57,17.62,35.14,26.32,52.76.84,1.71,1.76,2.39,3.61,2.22a23.14,23.14,0,0,1,4.78,0c.66.08,1.24.82,1.86,1.26Z"
                  transform="translate(-664 -458)"/>
            <path d="M870.27,618.63v-3.87h5.93l-.45,3.38,2,2.55-.54.83c-2.86,0-5.72.12-8.56-.09-.68,0-1.27-1.18-1.9-1.81l.53-.73Z"
                  transform="translate(-664 -458)"/>
            <path d="M1181.54,532.81c.56-.73,1.35-1.73,2.29-2.94l2.06,1.45-3.9,7.15c-3.59-.28-5.75-2.89-5.33-7.14Z"
                  transform="translate(-664 -458)"/>
            <path d="M812.12,596.89l-3-3.16.4-.37-3.25-1c.84-1.76-.92-4.54,2.73-4.65,4.42-.12,5.12.63,4.09,4.89C812.88,593.64,812.64,594.69,812.12,596.89Z"
                  transform="translate(-664 -458)"/>
            <path d="M752,605.24l8.57,10.25-.74,1.66a19.69,19.69,0,0,1-9.62-11.29Z" transform="translate(-664 -458)"/>
            <path d="M782.06,534.29l9.84-8.71,1.73,1c-2.39,4.56-6.17,7.28-10.57,9.61Z"
                  transform="translate(-664 -458)"/>
            <path d="M795.64,498.21l2.7-.17v13.84l-2.7-.14Z" transform="translate(-664 -458)"/>
            <path d="M789.82,556.21l-2,.81c-2.62-3.09-5.08-6-7.86-9.32l.91-1.86A21.89,21.89,0,0,1,789.82,556.21Z"
                  transform="translate(-664 -458)"/>
            <path d="M672,467.83l-2.56,6.33h-3.87C664.52,467.93,665.37,467,672,467.83Z"
                  transform="translate(-664 -458)"/>
            <path d="M786.09,618.7v2.65H774V618.7Z" transform="translate(-664 -458)"/>
            <path d="M767,543.38l-7.42-1.31V539l8.45-1C767.7,540,767.39,541.57,767,543.38Z"
                  transform="translate(-664 -458)"/>
            <path d="M884,571.83h2.93c0,3.47.06,6.82-.06,10.16,0,.52-.84,1-1.29,1.5-.53-.53-1.49-1-1.51-1.59C883.92,578.65,884,575.39,884,571.83Z"
                  transform="translate(-664 -458)"/>
            <path d="M809.11,609.89l-8.84,8.91-1.34-.61c.11-.91-.12-2.13.38-2.66,2.21-2.3,4.63-4.41,7.28-6.87Z"
                  transform="translate(-664 -458)"/>
            <path d="M746.76,577.8c2-.51,3-.26,2.88,1.83-.13,3,0,5.92,0,9-1.83.65-2.9.43-2.86-1.77C746.8,583.89,746.76,580.92,746.76,577.8Z"
                  transform="translate(-664 -458)"/>
            <path d="M721.05,560.93h2.77c0,3.32.11,6.57-.1,9.81,0,.61-1.36,1.14-2.67,2.16Z"
                  transform="translate(-664 -458)"/>
            <path d="M682,525.28c-2.15.57-3,.11-2.94-1.87.12-2.94,0-5.89,0-8.85,2-.63,3-.42,2.94,1.8C681.93,519.3,682,522.24,682,525.28Z"
                  transform="translate(-664 -458)"/>
            <path d="M886.77,551v11l-2.34.14a3.27,3.27,0,0,1-.37-.91c0-2.77,0-5.55-.09-8.32C883.88,550.86,884.65,550.21,886.77,551Z"
                  transform="translate(-664 -458)"/>
            <path d="M679.22,501.9V491.13l2.52-.25a8.35,8.35,0,0,1,.24,1.34c0,2.59-.05,5.18,0,7.76C682.09,501.88,681.37,502.57,679.22,501.9Z"
                  transform="translate(-664 -458)"/>
            <path d="M793.32,482.77l-2.41,1.63-7.86-7.2,1.44-2.41Z" transform="translate(-664 -458)"/>
            <path d="M723.83,595.67h-2.75V584.84c1.64-.5,2.83-.56,2.77,1.78C723.78,589.5,723.83,592.39,723.83,595.67Z"
                  transform="translate(-664 -458)"/>
            <path d="M857.88,552.15c1.7-.51,2.82-.45,2.76,1.69-.08,2.87,0,5.74,0,8.89l-2.74.22Z"
                  transform="translate(-664 -458)"/>
            <path d="M1201.64,596.17c0-2.87,0-5.73,0-8.59,0-2,.09-2,2.89-1.74,0,3.11.11,6.25-.1,9.37,0,.64-1.36,1.19-2.08,1.77Z"
                  transform="translate(-664 -458)"/>
            <path d="M1139.39,585.56c0,3.11.07,6.06-.06,9,0,.63-.8,1.23-1.23,1.84-.51-.65-1.41-1.26-1.47-1.94-.18-2.35,0-4.73-.09-7.1C1136.48,585.44,1137.28,584.87,1139.39,585.56Z"
                  transform="translate(-664 -458)"/>
            <path d="M886.06,534.93h-2.92c-.65-2.87-1.41-5.64-1.83-8.45-.12-.8.74-1.75,1.15-2.63l1.13.14C884.38,527.48,885.17,531,886.06,534.93Z"
                  transform="translate(-664 -458)"/>
            <path d="M749.14,525.56l2.66,1-6.73,9.11c-1.79-1.34-2.4-2.11-.83-3.73A63.6,63.6,0,0,0,749.14,525.56Z"
                  transform="translate(-664 -458)"/>
            <path d="M723.83,511.84c0,2.66-.09,5.33,0,8,.1,2.06-.88,2.38-3,1.85,0-2.81-.13-5.77.09-8.7,0-.67,1.27-1.26,1.95-1.89Z"
                  transform="translate(-664 -458)"/>
            <path d="M878.92,515.72c-8.91,1-10.21.68-10.31-2.44h10.31Z" transform="translate(-664 -458)"/>
            <path d="M860.62,582.07c-2.11.59-3,.19-2.94-1.83.11-2.74,0-5.49,0-8.33,1.86-.5,3-.48,2.93,1.8C860.54,576.54,860.62,579.37,860.62,582.07Z"
                  transform="translate(-664 -458)"/>
            <path d="M1201.79,562.8c2-.51,2.9-.14,2.79,1.88a61.46,61.46,0,0,0,0,6.51c.1,2-.71,2.68-2.78,2Z"
                  transform="translate(-664 -458)"/>
            <path d="M883.56,599.25l2.79.54c-.78,3.64-1.52,7.15-2.34,11l-2.65-1.13C882.12,606.06,882.83,602.71,883.56,599.25Z"
                  transform="translate(-664 -458)"/>
            <path d="M681.86,538.28v10.47c-1.68.52-2.85.52-2.78-1.78s0-4.55,0-6.82S679.18,537.94,681.86,538.28Z"
                  transform="translate(-664 -458)"/>
            <path d="M856.73,514.61l.56,2.71-9.81,3-1.21-2.51Z" transform="translate(-664 -458)"/>
            <path d="M823.06,541.31c2.36,3.05-1.24,5.76-1.47,8.66,0,.55-1.49,1-2.29,1.49l-.82-.83q1.57-4.7,3.16-9.4Z"
                  transform="translate(-664 -458)"/>
            <path d="M830.12,532.74l-2-1.81,7.55-7.17,1.84,2.11Z" transform="translate(-664 -458)"/>
            <path d="M910.35,611.48l-1.66-2.14,7.28-7,1.95,1.45C915.31,606.44,912.92,608.86,910.35,611.48Z"
                  transform="translate(-664 -458)"/>
            <path d="M683.37,467.65h9.72c.58,1.86.29,2.87-1.9,2.75a56.23,56.23,0,0,0-6,0C683.25,470.51,682.78,469.62,683.37,467.65Z"
                  transform="translate(-664 -458)"/>
            <path d="M705,467.54c2.66,0,5.33,0,8,0,2.17,0,2.15,1.08,1.59,2.86-2.79,0-5.56.12-8.31-.09-.71-.06-1.34-1.17-2-1.79Z"
                  transform="translate(-664 -458)"/>
            <path d="M723.83,489.81c0,2.84,0,5.39,0,7.95,0,2.18-.08,2.18-2.8,1.82v-9.77Z"
                  transform="translate(-664 -458)"/>
            <path d="M1204.4,513.2h9.28c.5,2.68.5,2.7-1.72,2.76-1.89,0-3.78-.09-5.66,0S1203.82,515.29,1204.4,513.2Z"
                  transform="translate(-664 -458)"/>
            <path d="M827.42,603.85l2-1.74c2.22,2.47,4.34,4.81,6.61,7.32l-1.47,2Z" transform="translate(-664 -458)"/>
            <path d="M817,572.48v-9.77c2-.59,2.83,0,2.72,2.07a48.58,48.58,0,0,0,0,5.66C819.89,572.44,818.91,572.82,817,572.48Z"
                  transform="translate(-664 -458)"/>
            <path d="M1176.56,560v-9.63c1.74-.43,3-.64,2.84,1.78a48.56,48.56,0,0,0,0,5.91C1179.53,560.27,1178.39,560.38,1176.56,560Z"
                  transform="translate(-664 -458)"/>
            <path d="M1244.05,566v10.27l-2.7.15c0-3.28-.06-6.43.1-9.57C1241.46,566.57,1242.91,566.36,1244.05,566Z"
                  transform="translate(-664 -458)"/>
            <path d="M1244.07,588v9.47c-1.78.65-2.92.61-2.84-1.72.07-2,.1-4,0-6S1242.1,587.41,1244.07,588Z"
                  transform="translate(-664 -458)"/>
            <path d="M735.77,470.46H728c-1.91,0-2.44-.87-1.71-2.76h9.45Z" transform="translate(-664 -458)"/>
            <path d="M744.83,474.1l7.27,7.95-2.51,1.34-6.42-6.86Z" transform="translate(-664 -458)"/>
            <path d="M855.66,617.33c.3,2.17-.52,2.74-2.38,2.15-2.55-.8-5.12-1.55-7.7-2.32-.13-2.17.43-2.95,2.55-2.16C850.54,615.89,853.05,616.53,855.66,617.33Z"
                  transform="translate(-664 -458)"/>
            <path d="M889.14,617.27l7.38-2.16c1.92-.58,1.92-.59,2.82,2-2.82.84-5.6,1.81-8.45,2.43-.67.15-1.6-.83-2.41-1.29Z"
                  transform="translate(-664 -458)"/>
            <path d="M824,592.54l-2.62,1.15c-1-3.27-2-6.33-3-9.49,1.74-.76,2.83-1.33,3.33.95S823.12,589.86,824,592.54Z"
                  transform="translate(-664 -458)"/>
            <path d="M1186,524.19l-2.23-1.67,8-6.43c1.22,1.64,1.93,2.52,0,3.66A63.16,63.16,0,0,0,1186,524.19Z"
                  transform="translate(-664 -458)"/>
            <path d="M1244,555.05l-2.54.11V546l2.54-.4Z" transform="translate(-664 -458)"/>
            <path d="M1209.73,619.28v-2.69h9.16v2.69Z" transform="translate(-664 -458)"/>
            <path d="M1171.31,616.46c.26,3.38-.3,3.54-9,2.77-.67-1.8-.47-2.89,1.92-2.79S1168.82,616.46,1171.31,616.46Z"
                  transform="translate(-664 -458)"/>
            <path d="M1151.05,619.33h-8.94c-.79-2-.48-3,1.89-2.89a41,41,0,0,0,5.08,0C1151.25,616.29,1151.66,617.27,1151.05,619.33Z"
                  transform="translate(-664 -458)"/>
            <path d="M1201.64,541.25h2.72v9c-1.73.68-2.8.52-2.74-1.76S1201.64,543.75,1201.64,541.25Z"
                  transform="translate(-664 -458)"/>
            <path d="M1179.27,570.6v8.71c-1.79.71-3,.65-2.88-1.69s0-4.55,0-7Z" transform="translate(-664 -458)"/>
            <path d="M1230.09,619.26c-.7-2.12-.07-2.93,2-2.83,2.27.12,4.55,0,7.06,0,.07,1,.12,1.82.19,2.8Z"
                  transform="translate(-664 -458)"/>
            <path d="M860.13,527.28l2.7.9c-.45,2.84-.89,5.56-1.33,8.33-2.23.92-2.94,0-2.59-2.12S859.68,529.91,860.13,527.28Z"
                  transform="translate(-664 -458)"/>
            <path d="M755.38,471.15c-2.57-.19-4.85-.48-7.13-.5-2.06,0-2.32-1-1.76-2.93l8.89.57Z"
                  transform="translate(-664 -458)"/>
            <path d="M1176.53,598.84v-8.39c2.78-.49,2.79-.49,2.84,1.95,0,1.49-.07,3,0,4.46C1179.53,598.91,1178.71,599.57,1176.53,598.84Z"
                  transform="translate(-664 -458)"/>
            <path d="M790.52,579.72v-8.38c1.88-1,2.78-.3,2.82,1.84,0,1.59-.05,3.19,0,4.77C793.5,580,792.5,580.33,790.52,579.72Z"
                  transform="translate(-664 -458)"/>
            <path d="M765.85,472.08l.33-2.64,8.44,2C774.37,474.69,773.86,474.72,765.85,472.08Z"
                  transform="translate(-664 -458)"/>
            <path d="M1242.65,535.53l-2.79.67a51,51,0,0,0-2.31-5.62c-1-1.82-.62-2.71,1.75-3.15C1240.35,530,1241.42,532.54,1242.65,535.53Z"
                  transform="translate(-664 -458)"/>
            <path d="M859.4,605.82c-.49-3.23-.9-5.9-1.33-8.78l2.79-.31c.42,2.61.83,5.11,1.28,7.91Z"
                  transform="translate(-664 -458)"/>
            <path d="M721,615.09v-6.58l2.13-.19,2.6,6.77Z" transform="translate(-664 -458)"/>
            <path d="M1224.55,515.18l7.53,4c-1.66,2.58-2.43,2.5-7.66-.93-.56-.37-.52-1.63-.76-2.49Z"
                  transform="translate(-664 -458)"/>
            <path d="M1135.5,615.36c-.28-3.3,1.47-6.55,3.69-6.58v6.58Z" transform="translate(-664 -458)"/>
            <path d="M721.11,541l3.74.24a65.15,65.15,0,0,1-1.23,6.44c-.12.42-1.49.49-2.51.78Z"
                  transform="translate(-664 -458)"/>
            <path d="M677.19,471.79c1-.11,1.56-.22,2.13-.22.78,0,1.56.09,2.5.15v6.52c-1.7.55-2.76.48-2.79-1.67,0-.78-.82-1.52-1.15-2.32A21.56,21.56,0,0,1,677.19,471.79Z"
                  transform="translate(-664 -458)"/>
            <path d="M746.8,569.06v-7.37c1.52-.38,2.7-.75,2.84,1.54C750,568.59,749.85,569.06,746.8,569.06Z"
                  transform="translate(-664 -458)"/>
            <path d="M1204.39,615.4H1201c.27-2.22.51-4.25.79-6.55l2.58-.16Z" transform="translate(-664 -458)"/>
            <path d="M1243.76,609.32l1.86,6.07h-4.22v-6.07Z" transform="translate(-664 -458)"/>
            <path d="M754.26,512.79c-3.15,0-3.34-.63-2.42-7.17l2.42-.13Z" transform="translate(-664 -458)"/>
            <path d="M744.3,544.34c1.4,2.63,2.54,4.75,3.77,7l-2.62,1-3.08-5.74Z" transform="translate(-664 -458)"/>
            <path d="M1180.05,615.41h-3.19c-1.12-4.75-.73-5.81,2.28-5.76C1179.43,611.48,1179.72,613.34,1180.05,615.41Z"
                  transform="translate(-664 -458)"/>
            <path d="M751.71,495.2c3.06,0,3.11.11,2.6,6.62l-2.6.19Z" transform="translate(-664 -458)"/>
            <path d="M720.88,533.47h3a50.57,50.57,0,0,1-.06,5.1c-.06.57-.82,1.07-1.27,1.59-.54-.53-1.46-1-1.55-1.61A38.16,38.16,0,0,1,720.88,533.47Z"
                  transform="translate(-664 -458)"/>
            <path d="M721,478.6v-7.08c1,.26,2.55.37,2.6.69a18.92,18.92,0,0,1,.06,5.26C723.59,477.89,722.17,478.13,721,478.6Z"
                  transform="translate(-664 -458)"/>
            <path d="M728,474.17c-.33-3.25.85-3.7,5.66-2.29C734,474.81,734,474.81,728,474.17Z"
                  transform="translate(-664 -458)"/>
            <path d="M726.83,537c2.7,0,4.24-.23,5.64.11.6.14.93,1.45,1.38,2.22a29.05,29.05,0,0,1-5.14.5C728.18,539.75,727.74,538.39,726.83,537Z"
                  transform="translate(-664 -458)"/>
            <path d="M1182.16,616.53c2.53.08,5.19-.84,6.44,2.44C1183.3,620.13,1182.09,619.7,1182.16,616.53Z"
                  transform="translate(-664 -458)"/>
            <path d="M1199.37,617c-.36.77-.65,2.16-1.09,2.21a35.63,35.63,0,0,1-5.26-.14c.2-.63.27-1.69.64-1.81a49.8,49.8,0,0,1,5-1.09Z"
                  transform="translate(-664 -458)"/>
            <path d="M1256,619.29h-5.84V616.8C1254.49,616.05,1255.75,616.58,1256,619.29Z"
                  transform="translate(-664 -458)"/>
            <path d="M793.07,592.5c-4.52-.59-1.7-3.88-2.66-5.68C793.67,586.2,793.8,586.46,793.07,592.5Z"
                  transform="translate(-664 -458)"/>
            <path d="M876.64,516.83c-.2,4.65-3,2.52-4.6,2.74-.24,0-.69-1.45-1-2.23Z" transform="translate(-664 -458)"/>
            <path d="M1196.6,523.15c.54,2.44-.25,3-2,3.06s-3.42.52-3.36-2.39Z" transform="translate(-664 -458)"/>
            <path d="M1200.72,532.1c.46-1.83-2.66-3.87,1.18-5.9a49,49,0,0,1,1.45,5.25c0,.25-1.29.75-2,1.13Z"
                  transform="translate(-664 -458)"/>
            <path d="M731.39,543.76c-.36-3-.13-3.1,4.84-2.3C736.63,544.35,736.34,544.49,731.39,543.76Z"
                  transform="translate(-664 -458)"/>
            <path d="M1124.53,619.28c1.61-2.43,3.37-3.28,5.53-2.68.57.16.82,1.49,1.42,2.68Z"
                  transform="translate(-664 -458)"/>
            <path d="M804.53,606.18c-3.06-1.47-1.63-3.07-.75-4.33.43-.63,1.6-.76,2.44-1.11l.65.84Z"
                  transform="translate(-664 -458)"/>
            <path d="M792.09,605.59l-1.28-5,3.1-.3C793.62,602.23,795.9,604.47,792.09,605.59Z"
                  transform="translate(-664 -458)"/>
            <path d="M861.28,610.17l2.62-.94c.91,1.63,2.86,3.14-.31,4.82Z" transform="translate(-664 -458)"/>
            <path d="M862.77,521.78c.9-1.14,1.68-2.12,2.45-3.11l1.1.45c0,.92.33,2-.07,2.74C865.38,523.41,864.12,523.36,862.77,521.78Z"
                  transform="translate(-664 -458)"/>
            <path d="M795.75,608.75c1-1.19,1.69-2.46,2.13-2.39.83.14,1.52,1.06,2.27,1.66l-.45.73Z"
                  transform="translate(-664 -458)"/>
        </g>
    </symbol>
    <symbol fill="none" xmlns="http://www.w3.org/2000/svg" viewBox="0 0 28 32" id="discord">
        <path d="M11.1039 13.424C10.7463 13.3938 10.3879 13.4722 10.0757 13.649C9.76338 13.8258 9.51175 14.0928 9.35372 14.415C9.19569 14.7372 9.13862 15.0997 9.18997 15.4548C9.24133 15.81 9.39871 16.1414 9.64154 16.4057C9.88436 16.6699 10.2013 16.8547 10.5509 16.9358C10.9005 17.017 11.2664 16.9907 11.6008 16.8604C11.9352 16.7301 12.2224 16.5019 12.425 16.2056C12.6275 15.9094 12.7359 15.5589 12.7359 15.2C12.7455 14.9762 12.7109 14.7527 12.634 14.5423C12.5572 14.3319 12.4396 14.1387 12.288 13.9737C12.1365 13.8088 11.9539 13.6754 11.7507 13.581C11.5475 13.4867 11.3277 13.4333 11.1039 13.424V13.424ZM16.9439 13.424C16.5863 13.3938 16.2279 13.4722 15.9157 13.649C15.6034 13.8258 15.3517 14.0928 15.1937 14.415C15.0357 14.7372 14.9786 15.0997 15.03 15.4548C15.0813 15.81 15.2387 16.1414 15.4815 16.4057C15.7244 16.6699 16.0413 16.8547 16.3909 16.9358C16.7405 17.017 17.1064 16.9907 17.4408 16.8604C17.7752 16.7301 18.0624 16.5019 18.265 16.2056C18.4675 15.9094 18.5759 15.5589 18.5759 15.2C18.5855 14.9762 18.5509 14.7527 18.474 14.5423C18.3972 14.3319 18.2796 14.1387 18.128 13.9737C17.9765 13.8088 17.7939 13.6754 17.5907 13.581C17.3875 13.4867 17.1677 13.4333 16.9439 13.424V13.424Z"
              fill="var(--secondary)"/>
        <path d="M24.72 0H3.28001C2.8482 0.000968512 2.42081 0.0869995 2.02226 0.253179C1.6237 0.419358 1.2618 0.662429 0.957203 0.968507C0.652611 1.27459 0.411304 1.63767 0.247066 2.03703C0.0828286 2.43639 -0.00112144 2.86419 1.13121e-05 3.296V24.928C-0.00112144 25.3598 0.0828286 25.7876 0.247066 26.187C0.411304 26.5863 0.652611 26.9494 0.957203 27.2555C1.2618 27.5616 1.6237 27.8046 2.02226 27.9708C2.42081 28.137 2.8482 28.223 3.28001 28.224H21.424L20.576 25.264L22.624 27.168L24.56 28.96L28 32V3.296C28.0011 2.86419 27.9172 2.43639 27.7529 2.03703C27.5887 1.63767 27.3474 1.27459 27.0428 0.968507C26.7382 0.662429 26.3763 0.419358 25.9777 0.253179C25.5792 0.0869995 25.1518 0.000968512 24.72 0V0ZM18.544 20.896C18.544 20.896 17.968 20.208 17.488 19.6C18.6478 19.3269 19.6736 18.6525 20.384 17.696C19.8083 18.0791 19.191 18.3958 18.544 18.64C17.7997 18.9577 17.0212 19.1886 16.224 19.328C14.8537 19.5803 13.4483 19.5749 12.08 19.312C11.2767 19.1548 10.4894 18.9245 9.728 18.624C9.32666 18.4697 8.9364 18.2879 8.56 18.08C8.512 18.048 8.464 18.032 8.416 18C8.39194 17.988 8.37025 17.9718 8.352 17.952C8.19852 17.8684 8.04902 17.7776 7.904 17.68C8.58872 18.6165 9.57912 19.2843 10.704 19.568C10.224 20.176 9.632 20.896 9.632 20.896C8.68157 20.9216 7.73941 20.7132 6.88844 20.2891C6.03748 19.865 5.30381 19.2383 4.75201 18.464C4.80395 15.2203 5.59176 12.0308 7.05601 9.136C8.34455 8.12394 9.91553 7.53692 11.552 7.456L11.712 7.648C10.1724 8.02901 8.73564 8.74465 7.50401 9.744C7.50401 9.744 7.856 9.552 8.448 9.28C9.5981 8.755 10.8238 8.41482 12.08 8.272C12.1696 8.25346 12.2606 8.24275 12.352 8.24C13.4242 8.10031 14.5093 8.08957 15.584 8.208C17.2741 8.40102 18.9102 8.92282 20.4 9.744C19.2308 8.79229 17.8729 8.09968 16.416 7.712L16.64 7.456C18.2765 7.53692 19.8475 8.12394 21.136 9.136C22.6002 12.0308 23.388 15.2203 23.44 18.464C22.8837 19.2375 22.1469 19.8634 21.2936 20.2872C20.4404 20.7111 19.4964 20.9201 18.544 20.896V20.896Z"
              fill="var(--secondary)"/>
    </symbol>
    <symbol fill="none" xmlns="http://www.w3.org/2000/svg" viewBox="0 0 35 35" id="instagram">
        <g clip-path="url(#clip0_7_94)">
            <path d="M17.5039 8.52644C12.5379 8.52644 8.53235 12.5329 8.53235 17.5C8.53235 22.4671 12.5379 26.4736 17.5039 26.4736C22.4699 26.4736 26.4755 22.4671 26.4755 17.5C26.4755 12.5329 22.4699 8.52644 17.5039 8.52644ZM17.5039 23.334C14.2948 23.334 11.6712 20.7177 11.6712 17.5C11.6712 14.2823 14.2869 11.666 17.5039 11.666C20.7209 11.666 23.3366 14.2823 23.3366 17.5C23.3366 20.7177 20.7131 23.334 17.5039 23.334V23.334ZM28.935 8.15938C28.935 9.32305 27.9981 10.2524 26.8424 10.2524C25.679 10.2524 24.7499 9.31524 24.7499 8.15938C24.7499 7.00351 25.6868 6.06633 26.8424 6.06633C27.9981 6.06633 28.935 7.00351 28.935 8.15938ZM34.877 10.2837C34.7443 7.47992 34.104 4.99637 32.0505 2.95018C30.0047 0.903994 27.5218 0.263584 24.7186 0.123006C21.8296 -0.0410019 13.1704 -0.0410019 10.2814 0.123006C7.48606 0.255774 5.00307 0.896184 2.94953 2.94237C0.895985 4.98856 0.263525 7.47211 0.122978 10.2759C-0.0409927 13.1655 -0.0409927 21.8267 0.122978 24.7163C0.255717 27.5201 0.895985 30.0036 2.94953 32.0498C5.00307 34.096 7.47825 34.7364 10.2814 34.877C13.1704 35.041 21.8296 35.041 24.7186 34.877C27.5218 34.7442 30.0047 34.1038 32.0505 32.0498C34.0962 30.0036 34.7365 27.5201 34.877 24.7163C35.041 21.8267 35.041 13.1733 34.877 10.2837V10.2837ZM31.1447 27.8169C30.5357 29.3476 29.3567 30.5269 27.8185 31.1439C25.5151 32.0576 20.0494 31.8468 17.5039 31.8468C14.9585 31.8468 9.48494 32.0498 7.18935 31.1439C5.65895 30.5347 4.47992 29.3554 3.86308 27.8169C2.94953 25.5129 3.16035 20.046 3.16035 17.5C3.16035 14.954 2.95733 9.47925 3.86308 7.18314C4.47211 5.6524 5.65114 4.47311 7.18935 3.85613C9.49275 2.94237 14.9585 3.15324 17.5039 3.15324C20.0494 3.15324 25.5229 2.95018 27.8185 3.85613C29.3489 4.4653 30.5279 5.64459 31.1447 7.18314C32.0583 9.48706 31.8475 14.954 31.8475 17.5C31.8475 20.046 32.0583 25.5208 31.1447 27.8169Z"
                  fill="var(--secondary)"/>
        </g>
        <defs>
            <clipPath id="clip0_7_94">
                <rect width="35" height="35" fill="var(--primary)"/>
            </clipPath>
        </defs>
    </symbol>
    <symbol fill="none" xmlns="http://www.w3.org/2000/svg" viewBox="0 0 39 40" id="github">
        <g clip-path="url(#clip0_7_92)">
            <path d="M12.9609 31.0469C12.9609 31.2031 12.7812 31.3281 12.5547 31.3281C12.2969 31.3516 12.1172 31.2266 12.1172 31.0469C12.1172 30.8906 12.2969 30.7656 12.5234 30.7656C12.7578 30.7422 12.9609 30.8672 12.9609 31.0469ZM10.5312 30.6953C10.4766 30.8516 10.6328 31.0312 10.8672 31.0781C11.0703 31.1562 11.3047 31.0781 11.3516 30.9219C11.3984 30.7656 11.25 30.5859 11.0156 30.5156C10.8125 30.4609 10.5859 30.5391 10.5312 30.6953ZM13.9844 30.5625C13.7578 30.6172 13.6016 30.7656 13.625 30.9453C13.6484 31.1016 13.8516 31.2031 14.0859 31.1484C14.3125 31.0938 14.4688 30.9453 14.4453 30.7891C14.4219 30.6406 14.2109 30.5391 13.9844 30.5625ZM19.125 0.625C8.28906 0.625 0 8.85156 0 19.6875C0 28.3516 5.45312 35.7656 13.2422 38.375C14.2422 38.5547 14.5938 37.9375 14.5938 37.4297C14.5938 36.9453 14.5703 34.2734 14.5703 32.6328C14.5703 32.6328 9.10156 33.8047 7.95312 30.3047C7.95312 30.3047 7.0625 28.0312 5.78125 27.4453C5.78125 27.4453 3.99219 26.2188 5.90625 26.2422C5.90625 26.2422 7.85156 26.3984 8.92188 28.2578C10.6328 31.2734 13.5 30.4062 14.6172 29.8906C14.7969 28.6406 15.3047 27.7734 15.8672 27.2578C11.5 26.7734 7.09375 26.1406 7.09375 18.625C7.09375 16.4766 7.6875 15.3984 8.9375 14.0234C8.73438 13.5156 8.07031 11.4219 9.14062 8.71875C10.7734 8.21094 14.5312 10.8281 14.5312 10.8281C16.0938 10.3906 17.7734 10.1641 19.4375 10.1641C21.1016 10.1641 22.7812 10.3906 24.3438 10.8281C24.3438 10.8281 28.1016 8.20312 29.7344 8.71875C30.8047 11.4297 30.1406 13.5156 29.9375 14.0234C31.1875 15.4062 31.9531 16.4844 31.9531 18.625C31.9531 26.1641 27.3516 26.7656 22.9844 27.2578C23.7031 27.875 24.3125 29.0469 24.3125 30.8828C24.3125 33.5156 24.2891 36.7734 24.2891 37.4141C24.2891 37.9219 24.6484 38.5391 25.6406 38.3594C33.4531 35.7656 38.75 28.3516 38.75 19.6875C38.75 8.85156 29.9609 0.625 19.125 0.625ZM7.59375 27.5703C7.49219 27.6484 7.51562 27.8281 7.64844 27.9766C7.77344 28.1016 7.95312 28.1562 8.05469 28.0547C8.15625 27.9766 8.13281 27.7969 8 27.6484C7.875 27.5234 7.69531 27.4688 7.59375 27.5703ZM6.75 26.9375C6.69531 27.0391 6.77344 27.1641 6.92969 27.2422C7.05469 27.3203 7.21094 27.2969 7.26562 27.1875C7.32031 27.0859 7.24219 26.9609 7.08594 26.8828C6.92969 26.8359 6.80469 26.8594 6.75 26.9375ZM9.28125 29.7188C9.15625 29.8203 9.20312 30.0547 9.38281 30.2031C9.5625 30.3828 9.78906 30.4062 9.89062 30.2812C9.99219 30.1797 9.94531 29.9453 9.78906 29.7969C9.61719 29.6172 9.38281 29.5938 9.28125 29.7188ZM8.39062 28.5703C8.26562 28.6484 8.26562 28.8516 8.39062 29.0312C8.51562 29.2109 8.72656 29.2891 8.82812 29.2109C8.95312 29.1094 8.95312 28.9062 8.82812 28.7266C8.71875 28.5469 8.51562 28.4688 8.39062 28.5703Z"
                  fill="var(--secondary)"/>
        </g>
        <defs>
            <clipPath id="clip0_7_92">
                <rect width="38.75" height="40" fill="var(--primary)"/>
            </clipPath>
        </defs>
    </symbol>
    <symbol fill="none" xmlns="http://www.w3.org/2000/svg" viewBox="5 5 30 30" id="html">
        <path d="M6.89331 5.02H33.1083L30.7233 31.9367L19.9716 34.98L9.28164 31.9367L6.89331 5.02ZM15.67 17.19L15.3816 13.7983L27.9366 13.8017L28.225 10.53L11.775 10.5267L12.645 20.5233H24.0366L23.6316 24.8L20 25.8033L16.31 24.795L16.075 22.1617H12.8183L13.23 27.3667L20 29.1767L26.7133 27.3767L27.6433 17.1917H15.67V17.19Z"
              fill="var(--icon-color)"/>
    </symbol>
    <symbol fill="none" xmlns="http://www.w3.org/2000/svg" viewBox="5 5 30 30" id="css">
        <path d="M6.98669 5.23833H33.0117L30.645 31.9617L19.9717 34.9817L9.35669 31.96L6.98669 5.23833ZM28.1667 10.7067L11.8334 10.7033L12.0967 13.9517L24.645 13.955L24.33 17.3217H16.1L16.3984 20.51H24.06L23.6067 24.8767L20 25.8733L16.3384 24.8683L16.1034 22.2533H12.87L13.23 27.0317L20 29.14L26.6584 27.245L28.1667 10.7067Z"
              fill="var(--icon-color)"/>
    </symbol>
    <symbol fill="none" xmlns="http://www.w3.org/2000/svg" viewBox="0 0 32 32" id="sass">
        <path d="M16 2.66667C23.3626 2.66667 29.3333 8.63734 29.3333 16C29.3333 23.3627 23.3626 29.3333 16 29.3333C8.63729 29.3333 2.66663 23.3627 2.66663 16C2.66663 8.63734 8.63729 2.66667 16 2.66667ZM13.3506 20.4427C13.5453 21.1587 13.524 21.828 13.3226 22.4333L13.2506 22.6333C13.0822 23.0365 12.8444 23.407 12.548 23.728C11.772 24.572 10.6893 24.8907 10.2253 24.6227C9.72529 24.3307 9.97463 23.14 10.8746 22.1893C11.8426 21.1693 13.2293 20.512 13.2293 20.512V20.5093L13.3506 20.4427ZM24.3613 8.37467C23.7586 6.00534 19.832 5.22534 16.1146 6.54667C13.9066 7.33201 11.5106 8.56667 9.79063 10.1773C7.74263 12.0893 7.41729 13.756 7.55063 14.452C8.02396 16.9093 11.392 18.516 12.7773 19.708V19.7147C12.368 19.9133 9.37996 21.4133 8.68129 22.9653C7.93063 24.5987 8.79863 25.7667 9.36529 25.9147C11.116 26.3987 12.9146 25.5147 13.8826 24.0827C14.8146 22.6813 14.7333 20.8827 14.332 19.9987C14.8826 19.8493 15.5306 19.7827 16.364 19.884C18.6986 20.1493 19.1653 21.6173 19.0626 22.2173C18.964 22.816 18.4813 23.1653 18.3146 23.2653C18.1466 23.3667 18.0973 23.4 18.1133 23.4667C18.1306 23.5653 18.2146 23.5653 18.3466 23.5507C18.5306 23.5173 19.5653 23.0507 19.6146 21.9147C19.664 20.4827 18.2973 18.884 15.864 18.9147C14.864 18.9333 14.2293 19.016 13.78 19.2C13.7496 19.153 13.7096 19.113 13.6626 19.0827C12.1626 17.4653 9.37863 16.332 9.49596 14.1827C9.52929 13.3987 9.81196 11.3333 14.8293 8.83334C18.9466 6.78267 22.2306 7.35067 22.7986 8.60001C23.612 10.3813 21.0466 13.7 16.764 14.1827C15.1306 14.3667 14.2813 13.7333 14.0626 13.4987C13.8306 13.248 13.7986 13.232 13.7146 13.284C13.58 13.3507 13.664 13.5667 13.7146 13.7013C13.848 14.0333 14.364 14.6187 15.2653 14.9173C16.048 15.168 17.964 15.316 20.2653 14.4173C22.848 13.4187 24.864 10.6333 24.2813 8.3L24.3613 8.37467Z"
              fill="var(--secondary)"/>
    </symbol>
    <symbol fill="none" xmlns="http://www.w3.org/2000/svg" viewBox="5 5 30 30" id="javascript">
        <path d="M5 5H35V35H5V5ZM32.5417 27.845C32.3233 26.4767 31.4317 25.3267 28.7883 24.2533C27.8683 23.8217 26.8467 23.5233 26.54 22.83C26.4267 22.4167 26.41 22.1933 26.4833 21.9483C26.6717 21.1417 27.6283 20.9 28.3783 21.1233C28.8667 21.2733 29.3167 21.6483 29.5983 22.25C30.89 21.405 30.89 21.405 31.7917 20.8433C31.4533 20.32 31.285 20.0917 31.06 19.8667C30.2717 18.9867 29.2217 18.5367 27.5167 18.575L26.6367 18.6867C25.7917 18.8933 24.985 19.345 24.4983 19.9433C23.0733 21.5567 23.485 24.3683 25.21 25.5333C26.915 26.8083 29.4117 27.0883 29.73 28.2883C30.03 29.7517 28.6433 30.22 27.2717 30.0517C26.26 29.825 25.6967 29.32 25.0783 28.3817L22.7917 29.695C23.0533 30.2933 23.3533 30.5567 23.8033 31.0817C25.9783 33.275 31.4167 33.1633 32.3917 29.825C32.4267 29.7133 32.6917 28.945 32.485 27.7633L32.5417 27.845ZM21.3133 18.7883H18.5033C18.5033 21.21 18.4917 23.6183 18.4917 26.045C18.4917 27.585 18.57 28.9983 18.3183 29.4333C17.9067 30.295 16.8417 30.185 16.36 30.0317C15.865 29.7883 15.6133 29.45 15.3217 28.9633C15.2433 28.8333 15.185 28.72 15.1633 28.72L12.8833 30.1267C13.265 30.915 13.8217 31.5917 14.54 32.0217C15.6083 32.66 17.0433 32.8667 18.5467 32.53C19.5267 32.2467 20.3717 31.665 20.81 30.765C21.45 29.6033 21.3133 28.1767 21.3083 26.5833C21.3217 24.015 21.3083 21.445 21.3083 18.8583L21.3133 18.7883Z"
              fill="var(--icon-color)"/>
    </symbol>
    <symbol fill="none" xmlns="http://www.w3.org/2000/svg" viewBox="0 0 40 40" id="nodejs">
        <path d="M20 36.6417C19.5417 36.6417 19.1134 36.5183 18.7134 36.305L14.6484 33.8917C14.04 33.5533 14.345 33.43 14.5284 33.3683C15.355 33.0933 15.5084 33.0333 16.3634 32.5467C16.4567 32.485 16.5784 32.5133 16.6717 32.575L19.7884 34.4417C19.9117 34.5017 20.065 34.5017 20.1567 34.4417L32.355 27.38C32.4784 27.32 32.5384 27.1967 32.5384 27.0433V12.9467C32.5384 12.795 32.4784 12.6717 32.355 12.6117L20.1567 5.58C20.035 5.51833 19.8817 5.51833 19.7884 5.58L7.58669 12.61C7.46503 12.67 7.40336 12.825 7.40336 12.945V27.04C7.40336 27.1617 7.46503 27.3167 7.58669 27.3767L10.92 29.305C12.7234 30.2183 13.8567 29.1467 13.8567 28.08V14.17C13.8567 13.9867 14.0084 13.8017 14.2234 13.8017H15.7834C15.9634 13.8017 16.15 13.955 16.15 14.17V28.0817C16.15 30.4967 14.8367 31.905 12.5434 31.905C11.84 31.905 11.29 31.905 9.73003 31.1383L6.52169 29.3067C6.13079 29.0794 5.80638 28.7536 5.58088 28.3616C5.35538 27.9697 5.2367 27.5255 5.23669 27.0733V12.9767C5.23669 12.06 5.72503 11.2033 6.52169 10.745L18.715 3.68333C19.1109 3.47164 19.5528 3.36089 20.0017 3.36089C20.4506 3.36089 20.8925 3.47164 21.2884 3.68333L33.4834 10.745C34.2817 11.2017 34.7684 12.06 34.7684 12.9767V27.0733C34.7684 27.9883 34.28 28.845 33.4834 29.3067L21.2884 36.3667C20.8867 36.55 20.4284 36.6417 20 36.6417ZM23.76 26.9483C18.41 26.9483 17.31 24.5017 17.31 22.425C17.31 22.2417 17.4634 22.0567 17.6767 22.0567H19.2667C19.45 22.0567 19.6017 22.1783 19.6017 22.3633C19.8467 23.9817 20.5484 24.7783 23.7917 24.7783C26.3584 24.7783 27.4617 24.195 27.4617 22.82C27.4617 22.025 27.1534 21.445 23.15 21.0483C19.8184 20.715 17.74 19.9767 17.74 17.3183C17.74 14.8433 19.8184 13.375 23.305 13.375C27.2167 13.375 29.1434 14.7233 29.3867 17.655C29.3838 17.7539 29.3513 17.8497 29.2934 17.93C29.2317 17.99 29.1417 18.0517 29.05 18.0517H27.4617C27.3832 18.05 27.3075 18.0222 27.2465 17.9727C27.1855 17.9232 27.1428 17.8548 27.125 17.7783C26.7567 16.0917 25.81 15.545 23.305 15.545C20.49 15.545 20.1534 16.5233 20.1534 17.2567C20.1534 18.1417 20.5484 18.4167 24.3434 18.9067C28.1034 19.395 29.8767 20.0983 29.8767 22.73C29.8434 25.4217 27.645 26.9483 23.76 26.9483Z"
              fill="var(--secondary)"/>
    </symbol>
    <symbol fill="none" xmlns="http://www.w3.org/2000/svg" viewBox="0 0 40 40" id="vuejs">
        <path d="M20.0001 21.275L29.3201 5.54666H23.8601L20.0001 12.2167V12.22L16.1467 5.54666H10.6801L20.0001 21.275Z"
              fill="var(--secondary)"/>
        <path d="M30.7683 5.55333L19.9999 23.725L9.23161 5.55333H3.31995L19.9999 34.4533L36.6799 5.55333H30.7683Z"
              fill="var(--secondary)"/>
    </symbol>
    <symbol fill="none" xmlns="http://www.w3.org/2000/svg" viewBox="0 0 40 40" id="php">
        <path d="M3.58332 27.9667H6.19998C6.2565 27.9672 6.31131 27.9473 6.35423 27.9105C6.39714 27.8737 6.42524 27.8226 6.43332 27.7667L7.01665 24.7333H9.04998C9.90115 24.7546 10.7504 24.6422 11.5666 24.4C12.228 24.1813 12.8318 23.8167 13.3333 23.3333C13.7838 22.9284 14.1614 22.4492 14.45 21.9167C14.7354 21.3957 14.9378 20.8334 15.05 20.25C15.2271 19.6385 15.2575 18.9938 15.1387 18.3683C15.02 17.7428 14.7555 17.1541 14.3666 16.65C13.9161 16.1922 13.3708 15.8386 12.769 15.614C12.1673 15.3894 11.5236 15.2993 10.8833 15.35H5.88332C5.82334 15.3527 5.76603 15.3756 5.72066 15.4149C5.67529 15.4542 5.64451 15.5077 5.63332 15.5667L3.33332 27.6667C3.30784 27.7366 3.30784 27.8134 3.33332 27.8833C3.36512 27.9164 3.40449 27.9413 3.44804 27.9558C3.49159 27.9704 3.53801 27.9741 3.58332 27.9667ZM8.33332 17.7H9.99998C10.3171 17.6574 10.6395 17.6782 10.9485 17.7612C11.2574 17.8441 11.5469 17.9876 11.8 18.1833C12.0833 18.4833 12.1333 19.05 11.9833 19.85C11.8998 20.5657 11.5628 21.2279 11.0333 21.7167C10.3732 22.1346 9.59555 22.3276 8.81665 22.2667H7.48332L8.33332 17.7ZM24.6666 16.1167C23.7644 15.4533 22.6471 15.1502 21.5333 15.2667H19.55L20.1 12.3333C20.1162 12.2995 20.1247 12.2625 20.1247 12.225C20.1247 12.1875 20.1162 12.1505 20.1 12.1167C20.0408 12.095 19.9758 12.095 19.9166 12.1167H17.3C17.2435 12.1161 17.1887 12.136 17.1457 12.1728C17.1028 12.2096 17.0747 12.2607 17.0666 12.3167L14.7666 24.4333C14.7506 24.4642 14.7422 24.4985 14.7422 24.5333C14.7422 24.5681 14.7506 24.6025 14.7666 24.6333C14.7863 24.6641 14.8134 24.6894 14.8455 24.7069C14.8775 24.7244 14.9135 24.7335 14.95 24.7333H17.5166C17.5758 24.7335 17.6327 24.7112 17.676 24.671C17.7193 24.6308 17.7458 24.5756 17.75 24.5167L19.0333 17.7333H20.8833C21.6333 17.7333 21.9 17.9 21.9833 18C22.0512 18.1638 22.0861 18.3394 22.0861 18.5167C22.0861 18.694 22.0512 18.8695 21.9833 19.0333L20.9666 24.4333C20.9506 24.4642 20.9422 24.4985 20.9422 24.5333C20.9422 24.5681 20.9506 24.6025 20.9666 24.6333C20.9873 24.6631 21.0147 24.6876 21.0465 24.705C21.0783 24.7223 21.1138 24.7321 21.15 24.7333H23.75C23.81 24.7306 23.8673 24.7078 23.9126 24.6685C23.958 24.6291 23.9888 24.5757 24 24.5167L25.0666 18.85C25.2388 18.3981 25.2923 17.9097 25.2223 17.4313C25.1523 16.9528 24.961 16.5003 24.6666 16.1167ZM32.2 15.2667H26.9833C26.9527 15.2644 26.9219 15.2682 26.8927 15.2779C26.8635 15.2876 26.8365 15.3029 26.8133 15.323C26.79 15.3432 26.771 15.3677 26.7573 15.3952C26.7436 15.4227 26.7354 15.4527 26.7333 15.4833L24.3 27.6667C24.2848 27.7008 24.277 27.7377 24.277 27.775C24.277 27.8123 24.2848 27.8492 24.3 27.8833C24.3224 27.91 24.3505 27.9314 24.3822 27.9458C24.4139 27.9602 24.4485 27.9674 24.4833 27.9667H27.2C27.2593 27.9715 27.3182 27.9535 27.3647 27.9163C27.4112 27.8791 27.4417 27.8256 27.45 27.7667L28.0666 24.7333H30.1833C31.0618 24.7526 31.9382 24.6403 32.7833 24.4C33.511 24.1976 34.1834 23.8329 34.75 23.3333C35.2152 22.9296 35.6096 22.4507 35.9166 21.9167C36.2073 21.3964 36.4154 20.8342 36.5333 20.25C36.715 19.6379 36.7462 18.991 36.6243 18.3642C36.5025 17.7375 36.2311 17.1494 35.8333 16.65C35.3621 16.1727 34.7938 15.8022 34.167 15.5635C33.5401 15.3249 32.8693 15.2236 32.2 15.2667ZM33.2333 19.8833C33.1336 20.605 32.7789 21.2672 32.2333 21.75C31.5494 22.1698 30.7501 22.3624 29.95 22.3H28.6166L29.5166 17.7H31.1833C31.8496 17.6183 32.5221 17.7909 33.0667 18.1833C33.3333 18.4833 33.3333 19.05 33.2333 19.8833Z"
              fill="var(--icon-color)"/>
    </symbol>
    <symbol fill="none" xmlns="http://www.w3.org/2000/svg" viewBox="0 0 40 40" id="laravel">
        <path d="M39.4075 9.05C39.42 9.1025 39.4275 9.16125 39.4275 9.2125V17.8C39.4277 17.9096 39.399 18.0173 39.3441 18.1122C39.2892 18.207 39.2101 18.2856 39.115 18.34L31.9075 22.4938V30.7163C31.9077 30.8258 31.879 30.9336 31.8241 31.0284C31.7692 31.1233 31.6901 31.2019 31.595 31.2563L16.55 39.915C16.5148 39.9345 16.4775 39.9496 16.4387 39.96L16.4 39.98C16.2953 40.0062 16.1858 40.0062 16.0812 39.98C16.0654 39.9753 16.0503 39.9686 16.0362 39.96C16.0001 39.9488 15.9653 39.9337 15.9325 39.915L0.893701 31.2563C0.79788 31.2021 0.717986 31.1237 0.662039 31.0289C0.606091 30.9341 0.576057 30.8263 0.574951 30.7163V4.955C0.574951 4.9025 0.587451 4.84375 0.601201 4.7925C0.607451 4.7725 0.613701 4.76 0.621201 4.74L0.659951 4.6425C0.666201 4.6225 0.686201 4.61 0.698701 4.59L0.757451 4.51125C0.778494 4.49826 0.798176 4.48319 0.816201 4.46625C0.842451 4.44625 0.861201 4.4275 0.887451 4.41375L8.40745 0.0837536C8.50255 0.029142 8.61029 0.000404358 8.71995 0.000404358C8.82961 0.000404358 8.93736 0.029142 9.03245 0.0837536L16.5587 4.41375C16.585 4.42625 16.6037 4.44625 16.6237 4.46625L16.6887 4.51125C16.7079 4.53632 16.7255 4.56262 16.7412 4.59C16.7537 4.6025 16.7737 4.6225 16.7862 4.6425L16.825 4.74C16.8312 4.76 16.845 4.7725 16.845 4.7925C16.8639 4.84453 16.8728 4.89967 16.8712 4.955V21.0425L23.1337 17.4363V9.21375C23.136 9.13989 23.1517 9.06705 23.18 8.99875L23.2187 8.90125C23.2312 8.875 23.2512 8.8625 23.2637 8.8425C23.2837 8.81625 23.2962 8.79 23.3162 8.77125C23.3362 8.7525 23.3612 8.73875 23.3812 8.72625C23.4 8.70544 23.4219 8.68772 23.4462 8.67375L30.9725 4.34375C31.0665 4.28606 31.1746 4.25552 31.285 4.25552C31.3953 4.25552 31.5034 4.28606 31.5975 4.34375L39.1175 8.67375C39.1437 8.68625 39.1625 8.70625 39.1887 8.72625C39.2087 8.73875 39.2275 8.7525 39.2475 8.77125C39.2675 8.79 39.2862 8.81625 39.3062 8.8425C39.3187 8.8625 39.3387 8.875 39.345 8.90125C39.365 8.93375 39.3712 8.96625 39.3837 8.99875C39.3962 9.01125 39.4037 9.03125 39.41 9.05125L39.4075 9.05ZM38.17 17.435V10.3L35.54 11.81L31.9075 13.9063V21.0413L38.17 17.435ZM30.6575 30.3513V23.2088L27.0762 25.2463L16.8675 31.08V38.2875L30.6575 30.3513ZM1.82245 6.04125V30.3513L15.6112 38.2875V31.08L8.4037 26.9975C8.37745 26.985 8.3587 26.965 8.3387 26.945C8.3187 26.9325 8.2937 26.9188 8.27995 26.9H8.2737C8.2537 26.88 8.2412 26.855 8.2212 26.835C8.2087 26.815 8.1887 26.7963 8.1762 26.77C8.16165 26.7454 8.1507 26.7189 8.1437 26.6913C8.1312 26.665 8.11745 26.6462 8.1112 26.62C8.10495 26.5938 8.0987 26.5613 8.0987 26.5288C8.09245 26.5025 8.0862 26.4838 8.0862 26.4575V9.6475L4.4537 7.55125L1.82245 6.04125ZM8.71745 1.3475L2.45495 4.95375L8.71745 8.56L14.98 4.95375L8.71745 1.3475ZM11.9787 23.8613L15.6112 21.765V6.0425L12.9812 7.5525L9.34245 9.64875V25.3713L11.9787 23.8613ZM31.2825 5.605L25.0125 9.21125L31.2825 12.8175L37.545 9.21125L31.2825 5.605ZM30.6575 13.9063L24.3875 10.3V17.435L28.02 19.5313L30.6562 21.0413L30.6575 13.9063ZM16.2375 29.9938L30.02 22.1287L23.7637 18.5225L9.98745 26.4525L16.2375 29.9938Z"
              fill="var(--secondary)"/>
    </symbol>
    <symbol fill="none" xmlns="http://www.w3.org/2000/svg" viewBox="0 0 40 40" id="docker">
        <path d="M33.6166 16.3667C33.1474 16.3641 32.6789 16.4031 32.2166 16.4833C32.0959 15.7535 31.8209 15.0578 31.4099 14.4428C30.9989 13.8277 30.4614 13.3074 29.8333 12.9167L29.3666 12.65L29.05 13.1C28.6523 13.706 28.3645 14.3774 28.2 15.0833C28.0355 15.7051 27.9994 16.3538 28.094 16.99C28.1885 17.6261 28.4117 18.2363 28.75 18.7833C27.9867 19.1236 27.1677 19.3213 26.3333 19.3667H4.3833C4.10769 19.3666 3.84311 19.475 3.64667 19.6683C3.45023 19.8616 3.33768 20.1244 3.3333 20.4C3.31279 22.3262 3.64027 24.2402 4.29997 26.05C4.89217 27.8282 6.06651 29.3548 7.6333 30.3833C9.91063 31.5393 12.4488 32.0848 15 31.9667C16.3508 31.9901 17.7008 31.8896 19.0333 31.6667C20.901 31.3323 22.6986 30.6842 24.35 29.75C25.7134 28.9233 26.9346 27.8821 27.9666 26.6667C29.5057 24.8561 30.708 22.7845 31.5166 20.55H31.8333C32.5147 20.5752 33.1944 20.4644 33.8325 20.224C34.4707 19.9836 35.0545 19.6185 35.55 19.15C35.9826 18.7467 36.3187 18.2511 36.5333 17.7L36.6666 17.3333L36.3333 17.0667C35.5259 16.5487 34.5738 16.3034 33.6166 16.3667Z"
              fill="var(--secondary)"/>
        <path d="M9.35002 15.5833H6.41669C6.34876 15.5832 6.28334 15.609 6.23379 15.6555C6.18423 15.7019 6.15427 15.7655 6.15002 15.8333V18.4667C6.15427 18.5345 6.18423 18.5981 6.23379 18.6445C6.28334 18.691 6.34876 18.7168 6.41669 18.7167H9.35002C9.41795 18.7168 9.48337 18.691 9.53293 18.6445C9.58249 18.5981 9.61245 18.5345 9.61669 18.4667V15.8333C9.61245 15.7655 9.58249 15.7019 9.53293 15.6555C9.48337 15.609 9.41795 15.5832 9.35002 15.5833ZM13.4167 15.5833H10.4667C10.3988 15.5832 10.3333 15.609 10.2838 15.6555C10.2342 15.7019 10.2043 15.7655 10.2 15.8333V18.4667C10.2043 18.5345 10.2342 18.5981 10.2838 18.6445C10.3333 18.691 10.3988 18.7168 10.4667 18.7167H13.4167C13.483 18.7167 13.5466 18.6903 13.5935 18.6434C13.6404 18.5966 13.6667 18.533 13.6667 18.4667V15.8333C13.6667 15.767 13.6404 15.7034 13.5935 15.6566C13.5466 15.6097 13.483 15.5833 13.4167 15.5833ZM17.5334 15.5833H14.5834C14.5171 15.5833 14.4535 15.6097 14.4066 15.6566C14.3597 15.7034 14.3334 15.767 14.3334 15.8333V18.4667C14.3334 18.533 14.3597 18.5966 14.4066 18.6434C14.4535 18.6903 14.5171 18.7167 14.5834 18.7167H17.5334C17.5997 18.7167 17.6632 18.6903 17.7101 18.6434C17.757 18.5966 17.7834 18.533 17.7834 18.4667V15.8333C17.7834 15.767 17.757 15.7034 17.7101 15.6566C17.6632 15.6097 17.5997 15.5833 17.5334 15.5833ZM18.65 15.5833C18.6122 15.5728 18.5723 15.5714 18.5338 15.5792C18.4953 15.5869 18.4591 15.6037 18.4283 15.628C18.3974 15.6524 18.3728 15.6836 18.3563 15.7193C18.3398 15.755 18.3319 15.7941 18.3334 15.8333V18.4667C18.3334 18.4995 18.3398 18.532 18.3524 18.5623C18.365 18.5927 18.3834 18.6202 18.4066 18.6434C18.4298 18.6667 18.4574 18.6851 18.4877 18.6976C18.518 18.7102 18.5505 18.7167 18.5834 18.7167H21.6667C21.733 18.7167 21.7966 18.6903 21.8435 18.6434C21.8904 18.5966 21.9167 18.533 21.9167 18.4667V15.8333C21.9167 15.767 21.8904 15.7034 21.8435 15.6566C21.7966 15.6097 21.733 15.5833 21.6667 15.5833H18.65ZM10.4667 11.8167H13.3334C13.4041 11.8167 13.4719 11.8448 13.5219 11.8948C13.5719 11.9448 13.6 12.0126 13.6 12.0833V14.6833C13.6075 14.7223 13.6061 14.7624 13.5961 14.8008C13.5861 14.8392 13.5676 14.8748 13.5421 14.9051C13.5165 14.9355 13.4845 14.9597 13.4484 14.9761C13.4123 14.9926 13.373 15.0007 13.3334 15H10.4667C10.4004 15 10.3368 14.9737 10.2899 14.9268C10.243 14.8799 10.2167 14.8163 10.2167 14.75V12.0667C10.2167 12.0338 10.2232 12.0013 10.2357 11.971C10.2483 11.9407 10.2667 11.9131 10.2899 11.8899C10.3131 11.8667 10.3407 11.8483 10.371 11.8357C10.4014 11.8231 10.4339 11.8167 10.4667 11.8167ZM14.5834 11.8167H17.5334C17.5662 11.8167 17.5987 11.8231 17.629 11.8357C17.6594 11.8483 17.6869 11.8667 17.7101 11.8899C17.7333 11.9131 17.7518 11.9407 17.7643 11.971C17.7769 12.0013 17.7834 12.0338 17.7834 12.0667V14.6833C17.7834 14.7541 17.7553 14.8219 17.7053 14.8719C17.6552 14.9219 17.5874 14.95 17.5167 14.95H14.5834C14.5171 14.95 14.4535 14.9237 14.4066 14.8768C14.3597 14.8299 14.3334 14.7663 14.3334 14.7V12.0667C14.3334 12.0338 14.3398 12.0013 14.3524 11.971C14.365 11.9407 14.3834 11.9131 14.4066 11.8899C14.4298 11.8667 14.4574 11.8483 14.4877 11.8357C14.518 11.8231 14.5505 11.8167 14.5834 11.8167ZM18.65 11.8167H21.6667C21.6995 11.8167 21.732 11.8231 21.7624 11.8357C21.7927 11.8483 21.8203 11.8667 21.8435 11.8899C21.8667 11.9131 21.8851 11.9407 21.8977 11.971C21.9102 12.0013 21.9167 12.0338 21.9167 12.0667V14.6833C21.9272 14.7212 21.9286 14.761 21.9209 14.7995C21.9131 14.8381 21.8964 14.8742 21.872 14.9051C21.8477 14.9359 21.8164 14.9606 21.7807 14.9771C21.745 14.9936 21.706 15.0014 21.6667 15H18.65C18.6065 15.0093 18.5613 15.0076 18.5186 14.995C18.4759 14.9824 18.437 14.9593 18.4055 14.9278C18.374 14.8963 18.3509 14.8575 18.3383 14.8148C18.3257 14.7721 18.324 14.7269 18.3334 14.6833V12.0667C18.3319 12.0274 18.3398 11.9883 18.3563 11.9527C18.3728 11.917 18.3974 11.8857 18.4283 11.8613C18.4591 11.837 18.4953 11.8203 18.5338 11.8125C18.5723 11.8047 18.6122 11.8062 18.65 11.8167Z"
              fill="var(--secondary)"/>
        <path d="M21.6 8.03333H18.65C18.512 8.03333 18.4 8.14526 18.4 8.28333V10.9167C18.4 11.0547 18.512 11.1667 18.65 11.1667H21.6C21.7381 11.1667 21.85 11.0547 21.85 10.9167V8.28333C21.85 8.14526 21.7381 8.03333 21.6 8.03333Z"
              fill="var(--secondary)"/>
        <path d="M22.75 15.5833C22.6837 15.5833 22.6201 15.6097 22.5732 15.6566C22.5263 15.7034 22.5 15.767 22.5 15.8333V18.4667C22.5 18.533 22.5263 18.5966 22.5732 18.6434C22.6201 18.6903 22.6837 18.7167 22.75 18.7167H25.7C25.7328 18.7167 25.7653 18.7102 25.7957 18.6976C25.826 18.6851 25.8536 18.6667 25.8768 18.6434C25.9 18.6202 25.9184 18.5927 25.931 18.5623C25.9435 18.532 25.95 18.4995 25.95 18.4667V15.8333C25.95 15.8005 25.9435 15.768 25.931 15.7377C25.9184 15.7073 25.9 15.6798 25.8768 15.6566C25.8536 15.6333 25.826 15.6149 25.7957 15.6024C25.7653 15.5898 25.7328 15.5833 25.7 15.5833H22.75Z"
              fill="var(--secondary)"/>
    </symbol>
    <symbol fill="none" xmlns="http://www.w3.org/2000/svg" viewBox="0 0 40 40" id="git">
        <path d="M36.0333 18.5133L21.4816 3.965C21.0781 3.56329 20.5319 3.33777 19.9625 3.33777C19.3931 3.33777 18.8469 3.56329 18.4433 3.965L15.4283 6.98333L19.26 10.8167C19.7121 10.6639 20.1979 10.6409 20.6624 10.7502C21.1269 10.8596 21.5514 11.0969 21.8879 11.4353C22.2244 11.7737 22.4593 12.1995 22.566 12.6647C22.6727 13.1298 22.647 13.6155 22.4916 14.0667L26.1816 17.7617C26.728 17.57 27.3232 17.5699 27.8696 17.7614C28.416 17.953 28.8809 18.3248 29.1879 18.8157C29.4949 19.3065 29.6257 19.8873 29.5589 20.4623C29.492 21.0374 29.2314 21.5727 28.82 21.98C27.8216 22.98 26.21 22.98 25.21 21.98C24.8548 21.6244 24.6121 21.1721 24.5122 20.6795C24.4123 20.187 24.4597 19.6759 24.6483 19.21L21.1916 15.7717V24.8333C21.435 24.9517 21.6683 25.115 21.87 25.3167C22.3465 25.7965 22.6139 26.4454 22.6139 27.1217C22.6139 27.7979 22.3465 28.4468 21.87 28.9267C21.6322 29.1648 21.3498 29.3538 21.0389 29.4827C20.7281 29.6116 20.3948 29.6779 20.0583 29.6779C19.7218 29.6779 19.3885 29.6116 19.0777 29.4827C18.7668 29.3538 18.4844 29.1648 18.2466 28.9267C18.0094 28.6901 17.8212 28.409 17.6927 28.0996C17.5643 27.7901 17.4982 27.4584 17.4982 27.1233C17.4982 26.7883 17.5643 26.4565 17.6927 26.1471C17.8212 25.8376 18.0094 25.5566 18.2466 25.32C18.5 25.07 18.7833 24.88 19.0866 24.755V15.605C18.775 15.4774 18.4918 15.2893 18.2533 15.0516C18.0148 14.8139 17.8257 14.5313 17.6971 14.2201C17.5685 13.9089 17.5028 13.5753 17.5039 13.2386C17.5049 12.9019 17.5727 12.5687 17.7033 12.2583L13.9366 8.47333L3.95831 18.4433C3.12498 19.2833 3.12498 20.6433 3.95831 21.4833L18.51 36.0317C18.7091 36.2313 18.9456 36.3896 19.206 36.4977C19.4664 36.6057 19.7456 36.6614 20.0275 36.6614C20.3094 36.6614 20.5886 36.6057 20.849 36.4977C21.1094 36.3896 21.3459 36.2313 21.545 36.0317L36.0283 21.55C36.2289 21.3514 36.3882 21.1151 36.4971 20.8547C36.606 20.5943 36.6623 20.315 36.6627 20.0327C36.6632 19.7505 36.6078 19.4709 36.4998 19.2101C36.3918 18.9494 36.2332 18.7126 36.0333 18.5133Z"
              fill="var(--secondary)"/>
    </symbol>
    <symbol fill="none" xmlns="http://www.w3.org/2000/svg" viewBox="0 0 40 40" id="arrow">
        <path d="M4.09 13.2325C4.55882 12.7638 5.19459 12.5005 5.8575 12.5005C6.52041 12.5005 7.15618 12.7638 7.625 13.2325L20 25.6075L32.375 13.2325C32.8465 12.7771 33.478 12.5251 34.1335 12.5308C34.789 12.5365 35.416 12.7994 35.8795 13.263C36.3431 13.7265 36.606 14.3535 36.6117 15.009C36.6174 15.6645 36.3654 16.296 35.91 16.7675L21.7675 30.91C21.2987 31.3787 20.6629 31.642 20 31.642C19.3371 31.642 18.7013 31.3787 18.2325 30.91L4.09 16.7675C3.62132 16.2987 3.35803 15.6629 3.35803 15C3.35803 14.3371 3.62132 13.7013 4.09 13.2325Z"
              fill="var(--secondary)"/>
    </symbol>
    <symbol fill="none" xmlns="http://www.w3.org/2000/svg" viewBox="0 0 40 30" id="flag_en">
        <path d="M0 4.68346V9.23077H6.25333L0 4.68346ZM5.18222 30H14.4444V23.265L5.18222 30ZM25.5556 23.2662V30H34.8167L25.5556 23.2662ZM0 20.7692V25.3165L6.25556 20.7692H0ZM34.8189 0H25.5556V6.735L34.8189 0ZM40 25.3177V20.7692H33.7433L40 25.3177ZM40 9.23077V4.68346L33.7456 9.23077H40ZM14.4444 0H5.18222L14.4444 6.735V0Z"
              fill="#00247D"/>
        <path d="M27.9333 20.8207L38.7244 28.7381C39.2514 28.1692 39.6302 27.4682 39.8244 26.702L31.8078 20.8207H27.9333ZM14.4444 20.8207H12.0656L1.27555 28.7369C1.85444 29.3539 2.59666 29.7951 3.42888 30L14.4444 21.9185V20.8207ZM25.5556 9.17928H27.9344L38.7244 1.2631C38.1356 0.637107 37.3893 0.199099 36.5722 0L25.5556 8.08149V9.17928ZM12.0656 9.17928L1.27555 1.2631C0.748831 1.83233 0.369788 2.53323 0.174438 3.29919L8.19111 9.17928H12.0656Z"
              fill="#CF1B2B"/>
        <path d="M40 18.4615H23.3333V30H25.5556V23.2662L34.8167 30H35.5556C36.1459 30.0001 36.7302 29.8778 37.2744 29.6402C37.8185 29.4026 38.3115 29.0546 38.7244 28.6165L27.9333 20.7692H31.8078L39.8244 26.5985C39.9278 26.2096 40 25.8069 40 25.3846V25.3177L33.7433 20.7692H40V18.4615ZM0 18.4615V20.7692H6.25556L0 25.3165V25.3846C0 26.6435 0.487778 27.7823 1.27556 28.6154L12.0656 20.7692H14.4444V21.8573L3.42889 29.8662C3.75556 29.9469 4.09333 30 4.44444 30H5.18222L14.4444 23.265V30H16.6667V18.4615H0ZM40 4.61539C40.0007 3.40613 39.5424 2.24533 38.7244 1.38462L27.9344 9.23077H25.5556V8.14269L36.5722 0.132692C36.2394 0.0479163 35.8982 0.00339006 35.5556 4.3659e-07H34.8189L25.5556 6.735V4.3659e-07H23.3333V11.5385H40V9.23077H33.7456L40 4.68346V4.61539ZM14.4444 4.3659e-07V6.735L5.18222 4.3659e-07H4.44444C3.85403 -0.000266737 3.26952 0.122092 2.72531 0.359879C2.1811 0.597666 1.68818 0.946077 1.27556 1.38462L12.0656 9.23077H8.19111L0.174444 3.40269C0.0642002 3.79697 0.00552601 4.20486 0 4.61539L0 4.68346L6.25333 9.23077H0V11.5385H16.6667V4.3659e-07H14.4444Z"
              fill="#EEEEEE"/>
        <path d="M23.3333 11.5385V0H16.6667V11.5385H0V18.4615H16.6667V30H23.3333V18.4615H40V11.5385H23.3333Z"
              fill="#CF1B2B"/>
    </symbol>
    <symbol fill="none" xmlns="http://www.w3.org/2000/svg" viewBox="0 0 40 30" id="flag_fr">
        <g clip-path="url(#clip0_52_151)">
            <path d="M39 25.3846C39 26.6087 38.5317 27.7826 37.6982 28.6482C36.8647 29.5137 35.7343 30 34.5555 30H25.6667V0H34.5555C35.7343 0 36.8647 0.486262 37.6982 1.35181C38.5317 2.21737 39 3.39131 39 4.61538V25.3846Z"
                  fill="#ED2939"/>
            <path d="M3.44444 0C2.2657 0 1.13524 0.486262 0.301748 1.35181C-0.531747 2.21737 -1 3.39131 -1 4.61538L-1 25.3846C-1 26.6087 -0.531747 27.7826 0.301748 28.6482C1.13524 29.5137 2.2657 30 3.44444 30H12.3333V0H3.44444Z"
                  fill="#002495"/>
            <path d="M12.3333 0H25.6667V30H12.3333V0Z" fill="#EEEEEE"/>
        </g>
        <defs>
            <clipPath id="clip0_52_151">
                <rect width="40" height="30" fill="white"/>
            </clipPath>
        </defs>
    </symbol>
    <symbol fill="none" xmlns="http://www.w3.org/2000/svg" viewBox="0 0 40 40" id="menu">
        <path fill-rule="evenodd" clip-rule="evenodd"
              d="M6 10C6 9.46957 6.21071 8.96086 6.58579 8.58579C6.96086 8.21071 7.46957 8 8 8H32C32.5304 8 33.0391 8.21071 33.4142 8.58579C33.7893 8.96086 34 9.46957 34 10C34 10.5304 33.7893 11.0391 33.4142 11.4142C33.0391 11.7893 32.5304 12 32 12H8C7.46957 12 6.96086 11.7893 6.58579 11.4142C6.21071 11.0391 6 10.5304 6 10ZM6 20C6 19.4696 6.21071 18.9609 6.58579 18.5858C6.96086 18.2107 7.46957 18 8 18H32C32.5304 18 33.0391 18.2107 33.4142 18.5858C33.7893 18.9609 34 19.4696 34 20C34 20.5304 33.7893 21.0391 33.4142 21.4142C33.0391 21.7893 32.5304 22 32 22H8C7.46957 22 6.96086 21.7893 6.58579 21.4142C6.21071 21.0391 6 20.5304 6 20ZM6 30C6 29.4696 6.21071 28.9609 6.58579 28.5858C6.96086 28.2107 7.46957 28 8 28H32C32.5304 28 33.0391 28.2107 33.4142 28.5858C33.7893 28.9609 34 29.4696 34 30C34 30.5304 33.7893 31.0391 33.4142 31.4142C33.0391 31.7893 32.5304 32 32 32H8C7.46957 32 6.96086 31.7893 6.58579 31.4142C6.21071 31.0391 6 30.5304 6 30Z"
              fill="var(--secondary)"/>
    </symbol>
    <symbol fill="none" xmlns="http://www.w3.org/2000/svg" viewBox="0 0 40 40" id="moon">
        <path d="M20.5 36.6667H20.3333C18.0475 36.6493 15.7882 36.176 13.6876 35.2745C11.587 34.373 9.68738 33.0615 8.09998 31.4167C5.15639 28.2688 3.48312 24.1422 3.40309 19.8332C3.32307 15.5242 4.84197 11.3383 7.66665 8.08334C9.48645 6.04392 11.7742 4.47681 14.3333 3.51667C14.6319 3.40177 14.9573 3.37525 15.2706 3.44026C15.5838 3.50528 15.8718 3.6591 16.1 3.88334C16.3113 4.09888 16.4602 4.36777 16.5306 4.66131C16.6011 4.95486 16.5905 5.26202 16.5 5.55001C15.5866 8.05157 15.4056 10.7618 15.9783 13.3625C16.551 15.9633 17.8536 18.3468 19.7333 20.2333C21.6305 22.1072 24.0197 23.4055 26.6242 23.9777C29.2287 24.5499 31.942 24.3727 34.45 23.4667C34.7485 23.3616 35.0708 23.3437 35.3791 23.415C35.6874 23.4864 35.969 23.644 36.1911 23.8695C36.4131 24.095 36.5663 24.3791 36.6328 24.6885C36.6993 24.9979 36.6764 25.3198 36.5667 25.6167C35.7153 27.8895 34.3852 29.9528 32.6666 31.6667C31.068 33.2605 29.1702 34.5227 27.0823 35.3808C24.9943 36.2389 22.7574 36.6759 20.5 36.6667Z"
              fill="var(--secondary)"/>
    </symbol>
    <symbol fill="none" xmlns="http://www.w3.org/2000/svg" viewBox="0 0 40 40" id="sun">
        <g clip-path="url(#clip0_52_138)">
            <path d="M20 12.5C15.8672 12.5 12.5 15.8672 12.5 20C12.5 24.1328 15.8672 27.5 20 27.5C24.1328 27.5 27.5 24.1328 27.5 20C27.5 15.8672 24.1328 12.5 20 12.5ZM39.25 18.7891L31.8516 15.0938L34.4688 7.25C34.8203 6.1875 33.8125 5.17969 32.7578 5.53906L24.9141 8.15625L21.2109 0.75C20.7109 -0.25 19.2891 -0.25 18.7891 0.75L15.0938 8.14844L7.24219 5.53125C6.17969 5.17969 5.17188 6.1875 5.53125 7.24219L8.14844 15.0859L0.75 18.7891C-0.25 19.2891 -0.25 20.7109 0.75 21.2109L8.14844 24.9062L5.53125 32.7578C5.17969 33.8203 6.1875 34.8281 7.24219 34.4688L15.0859 31.8516L18.7812 39.25C19.2812 40.25 20.7031 40.25 21.2031 39.25L24.8984 31.8516L32.7422 34.4688C33.8047 34.8203 34.8125 33.8125 34.4531 32.7578L31.8359 24.9141L39.2344 21.2188C40.25 20.7109 40.25 19.2891 39.25 18.7891ZM27.0703 27.0703C23.1719 30.9688 16.8281 30.9688 12.9297 27.0703C9.03125 23.1719 9.03125 16.8281 12.9297 12.9297C16.8281 9.03125 23.1719 9.03125 27.0703 12.9297C30.9688 16.8281 30.9688 23.1719 27.0703 27.0703Z"
                  fill="var(--secondary)"/>
        </g>
        <defs>
            <clipPath id="clip0_52_138">
                <rect width="40" height="40" fill="var(--primary)"/>
            </clipPath>
        </defs>
    </symbol>
    <symbol fill="none" xmlns="http://www.w3.org/2000/svg" viewBox="0 0 24 24" id="cross">
        <path fill-rule="evenodd" clip-rule="evenodd"
              d="M23.5451 2.64928C23.6892 2.50534 23.8035 2.33444 23.8816 2.14632C23.9596 1.95819 23.9999 1.75654 24 1.55286C24.0001 1.34919 23.9601 1.14748 23.8823 0.959265C23.8045 0.771047 23.6903 0.6 23.5464 0.455892C23.4025 0.311783 23.2316 0.197436 23.0434 0.119378C22.8553 0.0413191 22.6537 0.0010785 22.45 0.000953319C22.2463 0.000828135 22.0446 0.0408208 21.8564 0.118648C21.6682 0.196475 21.4971 0.310612 21.353 0.454544L11.9998 9.80777L2.64928 0.454544C2.35824 0.163504 1.9635 -3.0666e-09 1.55191 0C1.14032 3.0666e-09 0.745583 0.163504 0.454544 0.454544C0.163504 0.745583 3.0666e-09 1.14032 0 1.55191C-3.0666e-09 1.9635 0.163504 2.35824 0.454544 2.64928L9.80777 11.9998L0.454544 21.3503C0.310435 21.4944 0.196123 21.6655 0.118132 21.8538C0.0401411 22.0421 0 22.2439 0 22.4477C0 22.6515 0.0401411 22.8533 0.118132 23.0416C0.196123 23.2299 0.310435 23.401 0.454544 23.5451C0.745583 23.8361 1.14032 23.9996 1.55191 23.9996C1.75571 23.9996 1.95751 23.9595 2.1458 23.8815C2.33409 23.8035 2.50517 23.6892 2.64928 23.5451L11.9998 14.1918L21.353 23.5451C21.6441 23.8357 22.0387 23.9989 22.45 23.9987C22.8613 23.9984 23.2557 23.8348 23.5464 23.5437C23.8371 23.2527 24.0003 22.8581 24 22.4467C23.9997 22.0354 23.8361 21.641 23.5451 21.3503L14.1918 11.9998L23.5451 2.64928Z"
              fill="var(--secondary)"/>
    </symbol>
    <symbol fill="none" xmlns="http://www.w3.org/2000/svg" viewBox="0 0 34 34" id="corner">
        <path d="M1 1H15.9677V18.0323H33V33H1V1Z" fill="white" stroke="black"/>
    </symbol>
</svg>